# xmcd
#
# Track frame offsets: 
#        150
#        14054
#        25289
#        37641
#        48936
#        59855
#        70714
#        81866
#        95485
#        106030
#        117984
#        142718
#        151843
#        163533
#        174092
#        185933
#        196792
#        205926
#        219116
#        230463
#        241677
#
# Disc length: 3406 seconds
#
# Revision: 0
# Processed by: cddbd v1.5.2PL0 Copyright (c) Steve Scherf et al.
# Submitted via: ExactAudioCopy v0.99pb4
#
DISCID=0a0d4c15
DTITLE=Sir Lattimore Brown - Nobody Has To Tell Me
DYEAR=1970
DGENRE=Soul
TTITLE0=I'm Not Through Lovin' You
TTITLE1=I've Got Everything (My Baby Needs)
TTITLE2=I Know I'm Gonna Miss You
TTITLE3=Little Bag Of Tricks
TTITLE4=It's Such A Sad, Sad World
TTITLE5=Shake And Vibrate
TTITLE6=Cruise On, Fannie (Cruise On)
TTITLE7=Nobody Has To Tell Me (You Were Meant For Me)
TTITLE8=It's Gonna Take A Little Time
TTITLE9=Please, Please, Please
TTITLE10=Otis Is Gone (Parts 1&2)
TTITLE11=So Says My Heart
TTITLE12=Every Day I Have To Cry
TTITLE13=Don't Trust No One
TTITLE14=Bless Your Heart (I Love You)
TTITLE15=Boo Ga Lou Sue
TTITLE16=It Hurts Me So Bad
TTITLE17=Yak-A-Poo
TTITLE18=I Wish I Felt This Way At Home
TTITLE19=Sweet Desiree
TTITLE20=I Will
EXTD=
EXTT0=
EXTT1=
EXTT2=
EXTT3=
EXTT4=
EXTT5=
EXTT6=
EXTT7=
EXTT8=
EXTT9=
EXTT10=
EXTT11=
EXTT12=
EXTT13=
EXTT14=
EXTT15=
EXTT16=
EXTT17=
EXTT18=
EXTT19=
EXTT20=
PLAYORDER=
